<?xml version="1.0" encoding="UTF-8" standalone="no"?>
<!DOCTYPE svg PUBLIC "-//W3C//DTD SVG 1.1//EN"
 "http://www.w3.org/Graphics/SVG/1.1/DTD/svg11.dtd">
<!-- Generated by graphviz version 2.40.1 (20161225.0304)
 -->
<!-- Title: dependencies Pages: 1 -->
<svg width="2580pt" height="211pt"
 viewBox="0.00 0.00 2580.00 211.00" xmlns="http://www.w3.org/2000/svg" xmlns:xlink="http://www.w3.org/1999/xlink">
<g id="graph0" class="graph" transform="scale(1 1) rotate(0) translate(4 207)">
<title>dependencies</title>
<polygon fill="#ffffff" stroke="transparent" points="-4,4 -4,-207 2576,-207 2576,4 -4,4"/>
<text text-anchor="start" x="1265.0091" y="-42.4" font-family="sans-serif" font-weight="bold" font-size="14.00" fill="#000000">Legend</text>
<polygon fill="#ffffb3" stroke="transparent" points="1052,-10 1052,-30 1072,-30 1072,-10 1052,-10"/>
<text text-anchor="start" x="1075.629" y="-15.4" font-family="sans-serif" font-size="14.00" fill="#000000"> &#160;Declarations</text>
<polygon fill="#8dd3c7" stroke="transparent" points="1165,-10 1165,-30 1185,-30 1185,-10 1165,-10"/>
<text text-anchor="start" x="1188.7251" y="-15.4" font-family="sans-serif" font-size="14.00" fill="#000000"> &#160;Module</text>
<polygon fill="#80b1d3" stroke="transparent" points="1251,-10 1251,-30 1271,-30 1271,-10 1251,-10"/>
<text text-anchor="start" x="1274.7812" y="-15.4" font-family="sans-serif" font-size="14.00" fill="#000000"> &#160;Bootstrap</text>
<polygon fill="#fdb462" stroke="transparent" points="1348,-10 1348,-30 1368,-30 1368,-10 1348,-10"/>
<text text-anchor="start" x="1371.6732" y="-15.4" font-family="sans-serif" font-size="14.00" fill="#000000"> &#160;Providers</text>
<polygon fill="#fb8072" stroke="transparent" points="1444,-10 1444,-30 1464,-30 1464,-10 1444,-10"/>
<text text-anchor="start" x="1467.7258" y="-15.4" font-family="sans-serif" font-size="14.00" fill="#000000"> &#160;Exports</text>
<g id="clust1" class="cluster">
<title>cluster_StreamsModule</title>
<polygon fill="none" stroke="#000000" stroke-dasharray="1,5" points="8,-70 8,-195 2564,-195 2564,-70 8,-70"/>
</g>
<g id="clust2" class="cluster">
<title>cluster_StreamsModule_declarations</title>
<polygon fill="none" stroke="#000000" points="1270,-78 1270,-130 2556,-130 2556,-78 1270,-78"/>
</g>
<g id="clust10" class="cluster">
<title>cluster_StreamsModule_imports</title>
<polygon fill="none" stroke="#000000" points="874,-78 874,-130 1262,-130 1262,-78 874,-78"/>
</g>
<g id="clust13" class="cluster">
<title>cluster_StreamsModule_providers</title>
<polygon fill="none" stroke="#000000" points="16,-78 16,-130 866,-130 866,-78 16,-78"/>
</g>
<!-- StreamsComponent -->
<g id="node1" class="node">
<title>StreamsComponent</title>
<polygon fill="#ffffb3" stroke="#000000" points="2548.4313,-122 2421.5687,-122 2421.5687,-86 2548.4313,-86 2548.4313,-122"/>
<text text-anchor="middle" x="2485" y="-99.8" font-family="Times,serif" font-size="14.00" fill="#000000">StreamsComponent</text>
</g>
<!-- StreamsModule -->
<g id="node8" class="node">
<title>StreamsModule</title>
<polygon fill="#8dd3c7" stroke="#000000" points="1231.1486,-187 1228.1486,-191 1207.1486,-191 1204.1486,-187 1126.8514,-187 1126.8514,-151 1231.1486,-151 1231.1486,-187"/>
<text text-anchor="middle" x="1179" y="-164.8" font-family="Times,serif" font-size="14.00" fill="#000000">StreamsModule</text>
</g>
<!-- StreamsComponent&#45;&gt;StreamsModule -->
<g id="edge1" class="edge">
<title>StreamsComponent&#45;&gt;StreamsModule</title>
<path fill="none" stroke="#000000" d="M2485,-122.3228C2485,-145.6602 2485,-183 2485,-183 2485,-183 1241.4078,-183 1241.4078,-183"/>
<polygon fill="#000000" stroke="#000000" points="1241.4078,-179.5001 1231.4078,-183 1241.4077,-186.5001 1241.4078,-179.5001"/>
</g>
<!-- StreamCreateComponent -->
<g id="node2" class="node">
<title>StreamCreateComponent</title>
<polygon fill="#ffffb3" stroke="#000000" points="2403.5183,-122 2246.4817,-122 2246.4817,-86 2403.5183,-86 2403.5183,-122"/>
<text text-anchor="middle" x="2325" y="-99.8" font-family="Times,serif" font-size="14.00" fill="#000000">StreamCreateComponent</text>
</g>
<!-- StreamCreateComponent&#45;&gt;StreamsModule -->
<g id="edge2" class="edge">
<title>StreamCreateComponent&#45;&gt;StreamsModule</title>
<path fill="none" stroke="#000000" d="M2325,-122.2921C2325,-144.2057 2325,-178 2325,-178 2325,-178 1241.2191,-178 1241.2191,-178"/>
<polygon fill="#000000" stroke="#000000" points="1241.2192,-174.5001 1231.2191,-178 1241.2191,-181.5001 1241.2192,-174.5001"/>
</g>
<!-- StreamDefinitionsComponent -->
<g id="node3" class="node">
<title>StreamDefinitionsComponent</title>
<polygon fill="#ffffb3" stroke="#000000" points="2227.9748,-122 2044.0252,-122 2044.0252,-86 2227.9748,-86 2227.9748,-122"/>
<text text-anchor="middle" x="2136" y="-99.8" font-family="Times,serif" font-size="14.00" fill="#000000">StreamDefinitionsComponent</text>
</g>
<!-- StreamDefinitionsComponent&#45;&gt;StreamsModule -->
<g id="edge3" class="edge">
<title>StreamDefinitionsComponent&#45;&gt;StreamsModule</title>
<path fill="none" stroke="#000000" d="M2136,-122.0267C2136,-142.7672 2136,-174 2136,-174 2136,-174 1241.4734,-174 1241.4734,-174"/>
<polygon fill="#000000" stroke="#000000" points="1241.4734,-170.5001 1231.4734,-174 1241.4733,-177.5001 1241.4734,-170.5001"/>
</g>
<!-- StreamDetailsComponent -->
<g id="node4" class="node">
<title>StreamDetailsComponent</title>
<polygon fill="#ffffb3" stroke="#000000" points="2026.1386,-122 1865.8614,-122 1865.8614,-86 2026.1386,-86 2026.1386,-122"/>
<text text-anchor="middle" x="1946" y="-99.8" font-family="Times,serif" font-size="14.00" fill="#000000">StreamDetailsComponent</text>
</g>
<!-- StreamDetailsComponent&#45;&gt;StreamsModule -->
<g id="edge4" class="edge">
<title>StreamDetailsComponent&#45;&gt;StreamsModule</title>
<path fill="none" stroke="#000000" d="M1946,-122.1061C1946,-141.3391 1946,-169 1946,-169 1946,-169 1241.4171,-169 1241.4171,-169"/>
<polygon fill="#000000" stroke="#000000" points="1241.4172,-165.5001 1231.4171,-169 1241.4171,-172.5001 1241.4172,-165.5001"/>
</g>
<!-- StreamDeployComponent -->
<g id="node5" class="node">
<title>StreamDeployComponent</title>
<polygon fill="#ffffb3" stroke="#000000" points="1848.1979,-122 1685.8021,-122 1685.8021,-86 1848.1979,-86 1848.1979,-122"/>
<text text-anchor="middle" x="1767" y="-99.8" font-family="Times,serif" font-size="14.00" fill="#000000">StreamDeployComponent</text>
</g>
<!-- StreamDeployComponent&#45;&gt;StreamsModule -->
<g id="edge5" class="edge">
<title>StreamDeployComponent&#45;&gt;StreamsModule</title>
<path fill="none" stroke="#000000" d="M1767,-122.302C1767,-140.2699 1767,-165 1767,-165 1767,-165 1241.1811,-165 1241.1811,-165"/>
<polygon fill="#000000" stroke="#000000" points="1241.1811,-161.5001 1231.1811,-165 1241.181,-168.5001 1241.1811,-161.5001"/>
</g>
<!-- StreamCreateDialogComponent -->
<g id="node6" class="node">
<title>StreamCreateDialogComponent</title>
<polygon fill="#ffffb3" stroke="#000000" points="1667.6204,-122 1472.3796,-122 1472.3796,-86 1667.6204,-86 1667.6204,-122"/>
<text text-anchor="middle" x="1570" y="-99.8" font-family="Times,serif" font-size="14.00" fill="#000000">StreamCreateDialogComponent</text>
</g>
<!-- StreamCreateDialogComponent&#45;&gt;StreamsModule -->
<g id="edge6" class="edge">
<title>StreamCreateDialogComponent&#45;&gt;StreamsModule</title>
<path fill="none" stroke="#000000" d="M1570,-122.027C1570,-138.3976 1570,-160 1570,-160 1570,-160 1241.3263,-160 1241.3263,-160"/>
<polygon fill="#000000" stroke="#000000" points="1241.3263,-156.5001 1231.3263,-160 1241.3263,-163.5001 1241.3263,-156.5001"/>
</g>
<!-- PropertiesDialogComponent -->
<g id="node7" class="node">
<title>PropertiesDialogComponent</title>
<polygon fill="#ffffb3" stroke="#000000" points="1454.1937,-122 1277.8063,-122 1277.8063,-86 1454.1937,-86 1454.1937,-122"/>
<text text-anchor="middle" x="1366" y="-99.8" font-family="Times,serif" font-size="14.00" fill="#000000">PropertiesDialogComponent</text>
</g>
<!-- PropertiesDialogComponent&#45;&gt;StreamsModule -->
<g id="edge7" class="edge">
<title>PropertiesDialogComponent&#45;&gt;StreamsModule</title>
<path fill="none" stroke="#000000" d="M1366,-122.1871C1366,-137.1824 1366,-156 1366,-156 1366,-156 1241.5876,-156 1241.5876,-156"/>
<polygon fill="#000000" stroke="#000000" points="1241.5876,-152.5001 1231.5876,-156 1241.5875,-159.5001 1241.5876,-152.5001"/>
</g>
<!-- StreamsRoutingModule -->
<g id="node9" class="node">
<title>StreamsRoutingModule</title>
<polygon fill="#8dd3c7" stroke="#000000" points="1253.766,-122 1250.766,-126 1229.766,-126 1226.766,-122 1104.234,-122 1104.234,-86 1253.766,-86 1253.766,-122"/>
<text text-anchor="middle" x="1179" y="-99.8" font-family="Times,serif" font-size="14.00" fill="#000000">StreamsRoutingModule</text>
</g>
<!-- StreamsRoutingModule&#45;&gt;StreamsModule -->
<g id="edge8" class="edge">
<title>StreamsRoutingModule&#45;&gt;StreamsModule</title>
<path fill="none" stroke="#000000" d="M1179,-122.1061C1179,-122.1061 1179,-140.991 1179,-140.991"/>
<polygon fill="#000000" stroke="#000000" points="1175.5001,-140.9909 1179,-150.991 1182.5001,-140.991 1175.5001,-140.9909"/>
</g>
<!-- SharedModule -->
<g id="node10" class="node">
<title>SharedModule</title>
<polygon fill="#8dd3c7" stroke="#000000" points="1086.4231,-122 1083.4231,-126 1062.4231,-126 1059.4231,-122 987.5769,-122 987.5769,-86 1086.4231,-86 1086.4231,-122"/>
<text text-anchor="middle" x="1037" y="-99.8" font-family="Times,serif" font-size="14.00" fill="#000000">SharedModule</text>
</g>
<!-- SharedModule&#45;&gt;StreamsModule -->
<g id="edge9" class="edge">
<title>SharedModule&#45;&gt;StreamsModule</title>
<path fill="none" stroke="#000000" d="M1037,-122.1871C1037,-137.1824 1037,-156 1037,-156 1037,-156 1116.5279,-156 1116.5279,-156"/>
<polygon fill="#000000" stroke="#000000" points="1116.5279,-159.5001 1126.5279,-156 1116.5279,-152.5001 1116.5279,-159.5001"/>
</g>
<!-- AuthModule -->
<g id="node11" class="node">
<title>AuthModule</title>
<polygon fill="#8dd3c7" stroke="#000000" points="969.5482,-122 966.5482,-126 945.5482,-126 942.5482,-122 882.4518,-122 882.4518,-86 969.5482,-86 969.5482,-122"/>
<text text-anchor="middle" x="926" y="-99.8" font-family="Times,serif" font-size="14.00" fill="#000000">AuthModule</text>
</g>
<!-- AuthModule&#45;&gt;StreamsModule -->
<g id="edge10" class="edge">
<title>AuthModule&#45;&gt;StreamsModule</title>
<path fill="none" stroke="#000000" d="M926,-122.027C926,-138.3976 926,-160 926,-160 926,-160 1116.5782,-160 1116.5782,-160"/>
<polygon fill="#000000" stroke="#000000" points="1116.5783,-163.5001 1126.5782,-160 1116.5782,-156.5001 1116.5783,-163.5001"/>
</g>
<!-- StreamsService -->
<g id="node12" class="node">
<title>StreamsService</title>
<ellipse fill="#fdb462" stroke="#000000" cx="787" cy="-104" rx="71.1998" ry="18"/>
<text text-anchor="middle" x="787" y="-99.8" font-family="Times,serif" font-size="14.00" fill="#000000">StreamsService</text>
</g>
<!-- StreamsService&#45;&gt;StreamsModule -->
<g id="edge11" class="edge">
<title>StreamsService&#45;&gt;StreamsModule</title>
<path fill="none" stroke="#000000" d="M787,-122.302C787,-140.2699 787,-165 787,-165 787,-165 1116.5399,-165 1116.5399,-165"/>
<polygon fill="#000000" stroke="#000000" points="1116.5399,-168.5001 1126.5399,-165 1116.5399,-161.5001 1116.5399,-168.5001"/>
</g>
<!-- MetamodelService -->
<g id="node13" class="node">
<title>MetamodelService</title>
<ellipse fill="#fdb462" stroke="#000000" cx="614" cy="-104" rx="83.945" ry="18"/>
<text text-anchor="middle" x="614" y="-99.8" font-family="Times,serif" font-size="14.00" fill="#000000">MetamodelService</text>
</g>
<!-- MetamodelService&#45;&gt;StreamsModule -->
<g id="edge12" class="edge">
<title>MetamodelService&#45;&gt;StreamsModule</title>
<path fill="none" stroke="#000000" d="M614,-122.1061C614,-141.3391 614,-169 614,-169 614,-169 1116.6065,-169 1116.6065,-169"/>
<polygon fill="#000000" stroke="#000000" points="1116.6065,-172.5001 1126.6065,-169 1116.6064,-165.5001 1116.6065,-172.5001"/>
</g>
<!-- RenderService -->
<g id="node14" class="node">
<title>RenderService</title>
<ellipse fill="#fdb462" stroke="#000000" cx="444" cy="-104" rx="67.7548" ry="18"/>
<text text-anchor="middle" x="444" y="-99.8" font-family="Times,serif" font-size="14.00" fill="#000000">RenderService</text>
</g>
<!-- RenderService&#45;&gt;StreamsModule -->
<g id="edge13" class="edge">
<title>RenderService&#45;&gt;StreamsModule</title>
<path fill="none" stroke="#000000" d="M444,-122.0267C444,-142.7672 444,-174 444,-174 444,-174 1116.7298,-174 1116.7298,-174"/>
<polygon fill="#000000" stroke="#000000" points="1116.7299,-177.5001 1126.7298,-174 1116.7298,-170.5001 1116.7299,-177.5001"/>
</g>
<!-- EditorService -->
<g id="node15" class="node">
<title>EditorService</title>
<ellipse fill="#fdb462" stroke="#000000" cx="294" cy="-104" rx="64.261" ry="18"/>
<text text-anchor="middle" x="294" y="-99.8" font-family="Times,serif" font-size="14.00" fill="#000000">EditorService</text>
</g>
<!-- EditorService&#45;&gt;StreamsModule -->
<g id="edge14" class="edge">
<title>EditorService&#45;&gt;StreamsModule</title>
<path fill="none" stroke="#000000" d="M294,-122.2921C294,-144.2057 294,-178 294,-178 294,-178 1116.6168,-178 1116.6168,-178"/>
<polygon fill="#000000" stroke="#000000" points="1116.6169,-181.5001 1126.6168,-178 1116.6168,-174.5001 1116.6169,-181.5001"/>
</g>
<!-- ContentAssistService -->
<g id="node16" class="node">
<title>ContentAssistService</title>
<ellipse fill="#fdb462" stroke="#000000" cx="118" cy="-104" rx="94.3543" ry="18"/>
<text text-anchor="middle" x="118" y="-99.8" font-family="Times,serif" font-size="14.00" fill="#000000">ContentAssistService</text>
</g>
<!-- ContentAssistService&#45;&gt;StreamsModule -->
<g id="edge15" class="edge">
<title>ContentAssistService&#45;&gt;StreamsModule</title>
<path fill="none" stroke="#000000" d="M118,-122.3228C118,-145.6602 118,-183 118,-183 118,-183 1116.7467,-183 1116.7467,-183"/>
<polygon fill="#000000" stroke="#000000" points="1116.7468,-186.5001 1126.7467,-183 1116.7467,-179.5001 1116.7468,-186.5001"/>
</g>
</g>
</svg>
